<?xml version="1.0" encoding="UTF-8"?>
<svg width="24px" height="24px" viewBox="0 0 24 24" version="1.1" xmlns="http://www.w3.org/2000/svg" xmlns:xlink="http://www.w3.org/1999/xlink">
    <!-- Generator: Sketch 51.2 (57519) - http://www.bohemiancoding.com/sketch -->
    <title>table1/call support</title>
    <desc>Created with Sketch.</desc>
    <defs></defs>
    <g id="table1/call-support" stroke="none" stroke-width="1" fill="none" fill-rule="evenodd">
        <path d="M5,0 L19,0 C21.7614237,-5.07265313e-16 24,2.23857625 24,5 L24,19 C24,21.7614237 21.7614237,24 19,24 L5,24 C2.23857625,24 2.11453371e-15,21.7614237 1.77635684e-15,19 L0,5 C-3.38176876e-16,2.23857625 2.23857625,2.28362215e-15 5,1.77635684e-15 Z M13.0666667,14.8 C10.5777778,13.4666667 10.4444444,13.4222222 9.2,10.9333333 L10.2444444,8.97777778 C10.4222222,8.71111111 10.5111111,8.35555556 10.4222222,8.08888889 C10.0666667,7.02222222 9.88888889,5.95555556 9.88888889,4.88888889 C9.88888889,4.35555556 9.53333333,4 9,4 L4.88888889,4 C4.35555556,4 4,4.35555556 4,4.88888889 C4,13.2444444 10.7555556,20 19.1111111,20 C19.6444444,20 20,19.6444444 20,19.1111111 L20,15.0888889 C20,14.5555556 19.6444444,14.2 19.1111111,14.2 C17.9555556,14.2 16.8888889,14.0222222 15.9111111,13.6666667 C15.6444444,13.4888889 15.2888889,13.5777778 15.0222222,13.8444444 L13.0666667,14.8 Z" fill="#000000"></path>
    </g>
</svg>