<?xml version="1.0" encoding="UTF-8"?>
<svg width="24px" height="24px" viewBox="0 0 24 24" version="1.1" xmlns="http://www.w3.org/2000/svg" xmlns:xlink="http://www.w3.org/1999/xlink">
    <!-- Generator: Sketch 51.2 (57519) - http://www.bohemiancoding.com/sketch -->
    <title>table1/chat support</title>
    <desc>Created with Sketch.</desc>
    <defs></defs>
    <g id="table1/chat-support" stroke="none" stroke-width="1" fill="none" fill-rule="evenodd">
        <path d="M5,0 L19,0 C21.7614237,-5.07265313e-16 24,2.23857625 24,5 L24,19 C24,21.7614237 21.7614237,24 19,24 L5,24 C2.23857625,24 2.11453371e-15,21.7614237 1.77635684e-15,19 L0,5 C-3.38176876e-16,2.23857625 2.23857625,2.28362215e-15 5,1.77635684e-15 Z M12,17 C16.9705627,17 21,13.8659932 21,10 C21,6.13400675 16.9705627,3 12,3 C7.02943725,3 3,6.13400675 3,10 C3,11.8249806 3.65572247,13.322534 5.12669462,14.5686035 C5.12669462,14.9702555 5.12669462,16.796285 5.12669462,20.0466919 C7.79731475,17.8399276 9.61918106,16.7959883 10.5922935,16.9148741 C11.0509517,16.9709086 11.5211079,17 12,17 Z M7,7 L16.9249527,7 L16.9249527,8 L7,8 L7,7 Z M7,9 L16.9249527,9 L16.9249527,10 L7,10 L7,9 Z M7,11 L13,11 L13,12 L7,12 L7,11 Z" fill="#000000"></path>
    </g>
</svg>